<?xml version="1.0" encoding="UTF-8" standalone="no"?>
<!-- Created with Inkscape (http://www.inkscape.org/) -->

<svg
   width="12.701256mm"
   height="14.685425mm"
   viewBox="0 0 12.701256 14.685425"
   version="1.1"
   id="svg1"
   xml:space="preserve"
   xmlns="http://www.w3.org/2000/svg"
   xmlns:svg="http://www.w3.org/2000/svg"><defs
     id="defs1" /><g
     id="layer1"
     transform="translate(-8.1269094,-177.67483)"><g
       id="g125"
       transform="translate(-16.44244,8.8727128)"><g
         id="g124"><path
           style="fill:#ffffff;fill-opacity:1;stroke-width:2.17276;stroke-linejoin:bevel;paint-order:markers stroke fill"
           d="m 29.313198,174.38081 0.06889,0.32723 0.67169,-0.0861 1.377823,-1.15393 0.396123,-0.63724 -0.223895,-0.32724 -1.687836,1.10226 -0.671687,0.55113 z"
           id="path124" /><g
           id="g111"
           transform="matrix(1.7892549,0,0,1.7892549,-105.61603,-67.711922)"
           style="stroke-width:0.558892"><path
             style="fill:#000000;stroke-width:0.558892"
             d="m 76.199959,139.54506 c -0.03556,-0.0126 -0.09099,-0.0554 -0.177695,-0.13742 -0.450759,-0.42625 -0.951213,-0.93039 -0.992322,-0.99965 -0.03169,-0.0534 -0.0398,-0.13908 -0.0183,-0.19327 0.02529,-0.0637 0.104547,-0.154 0.454153,-0.51732 0.616361,-0.64055 0.710878,-0.72453 0.828069,-0.73579 0.115656,-0.0111 0.235798,0.0745 0.479856,0.34213 0.09727,0.10664 0.291824,0.31126 0.432341,0.4547 0.426707,0.4356 0.468562,0.50237 0.401614,0.64066 -0.02926,0.0605 -0.242769,0.29759 -0.420172,0.46668 -0.07167,0.0683 -0.234262,0.22596 -0.361314,0.35032 -0.127051,0.12437 -0.253815,0.2437 -0.281696,0.26519 -0.103158,0.0795 -0.232374,0.10341 -0.344539,0.0638 z m 0.140167,-0.42983 c 0.02534,-0.0129 0.113146,-0.0865 0.195125,-0.16354 0.08198,-0.077 0.178412,-0.15839 0.214294,-0.18084 0.03588,-0.0224 0.113001,-0.0728 0.171375,-0.11189 0.450073,-0.30141 0.485745,-0.33316 0.485745,-0.43229 0,-0.0301 -0.0067,-0.0636 -0.01481,-0.0744 -0.0081,-0.0108 -0.07001,-0.0466 -0.137488,-0.0797 -0.06747,-0.033 -0.152767,-0.0804 -0.189541,-0.10531 -0.03677,-0.0249 -0.08512,-0.0547 -0.107437,-0.0661 -0.02232,-0.0115 -0.07563,-0.0462 -0.118463,-0.0772 -0.04284,-0.031 -0.107208,-0.071 -0.143043,-0.0888 -0.07151,-0.0356 -0.160238,-0.0986 -0.26062,-0.18518 -0.129373,-0.11159 -0.159985,-0.10408 -0.339242,0.0833 -0.101051,0.1056 -0.156335,0.15102 -0.298143,0.24493 -0.09575,0.0634 -0.24445,0.14922 -0.330448,0.19069 -0.166252,0.0802 -0.204954,0.11397 -0.204954,0.179 0,0.0616 0.03218,0.0869 0.119304,0.0939 0.07315,0.006 0.08213,0.004 0.183159,-0.0471 0.06034,-0.0303 0.21626,-0.0878 0.360932,-0.13311 0.225744,-0.0707 0.268162,-0.0804 0.37316,-0.0851 0.138321,-0.006 0.233811,0.009 0.438314,0.071 0.181782,0.0549 0.406133,0.14974 0.35539,0.15027 -0.141671,10e-4 -0.387659,0.13352 -0.603969,0.32417 -0.125933,0.11099 -0.332335,0.33219 -0.362417,0.3884 -0.0171,0.0319 0.01121,0.0637 0.08976,0.10056 0.07174,0.0337 0.06721,0.0335 0.124018,0.005 z m -0.218788,-0.49665 c 0.115157,-0.0301 0.15678,-0.0473 0.219157,-0.0902 0.0948,-0.0653 0.128665,-0.10728 0.105062,-0.1304 -0.01913,-0.0187 -0.18904,-0.0648 -0.239044,-0.0648 -0.0473,0 -0.323588,0.0626 -0.443052,0.10031 -0.130186,0.0411 -0.169285,0.0744 -0.169285,0.14417 0,0.0778 0.03186,0.0893 0.231003,0.083 0.123698,-0.004 0.181976,-0.0122 0.296159,-0.0421 z m -1.994408,-0.17325 c -0.100964,-0.0849 -0.0566,-0.2543 0.06662,-0.2543 0.09989,0 0.175037,0.0992 0.139529,0.18416 -0.04207,0.10069 -0.133052,0.13165 -0.206145,0.0701 z m 4.166806,0.0122 c -0.01706,-0.009 -0.04006,-0.0359 -0.05112,-0.0592 -0.02487,-0.0524 -0.01066,-0.10675 0.04156,-0.15897 0.04226,-0.0423 0.09216,-0.0546 0.147118,-0.0365 0.0546,0.018 0.07708,0.0526 0.07708,0.11848 0,0.0667 -0.02375,0.10241 -0.08746,0.13134 -0.05811,0.0264 -0.08564,0.0274 -0.127182,0.005 z m -3.681502,-0.0106 c -0.03149,-0.0175 -0.05947,-0.061 -0.06012,-0.0936 -7.16e-4,-0.0364 0.03391,-0.09 0.07027,-0.10879 0.05515,-0.0285 0.103944,-0.0228 0.143455,0.0167 0.04877,0.0488 0.04635,0.0945 -0.0082,0.15488 -0.04665,0.0516 -0.09098,0.061 -0.145397,0.0309 z m 3.235707,-0.0426 c -0.03184,-0.0194 -0.0385,-0.0308 -0.0385,-0.0657 0,-0.0708 0.07064,-0.12153 0.148769,-0.10688 0.081,0.0152 0.104168,0.11134 0.03986,0.16545 -0.04421,0.0372 -0.0967,0.0397 -0.150132,0.007 z m -4.220257,-0.11897 c 0,-0.006 0.008,-0.0115 0.01777,-0.0115 0.0098,0 0.01777,0.002 0.01777,0.005 0,0.003 -0.008,0.008 -0.01777,0.0115 -0.0098,0.004 -0.01777,0.002 -0.01777,-0.005 z m 0.205228,-0.6083 c -0.02721,-0.009 -0.06755,-0.0273 -0.08966,-0.041 -0.07089,-0.0438 -0.173689,-0.16274 -0.213713,-0.24724 -0.03411,-0.072 -0.03809,-0.0915 -0.03809,-0.18702 0,-0.16786 0.0618,-0.29168 0.189389,-0.37947 0.100204,-0.0689 0.183313,-0.0917 0.31408,-0.0859 0.186831,0.008 0.294093,0.0776 0.374786,0.24257 l 0.03231,0.0661 0.161914,-0.006 c 0.142862,-0.005 0.169994,-0.01 0.23058,-0.0373 0.08077,-0.037 0.206522,-0.15561 0.466246,-0.43986 0.09526,-0.10424 0.239588,-0.25427 0.320738,-0.33339 l 0.147545,-0.14384 0.0084,-0.0883 c 0.0056,-0.0591 0.01892,-0.10897 0.04017,-0.1509 0.04257,-0.084 0.03241,-0.0932 -0.113744,-0.1028 -0.165757,-0.0109 -0.173402,-0.007 -0.342741,0.18011 -0.184138,0.20332 -0.261714,0.26012 -0.437764,0.32057 -0.06078,0.0209 -0.101351,0.0221 -0.604163,0.0189 -0.296455,-0.002 -0.552758,-0.006 -0.569562,-0.009 -0.02703,-0.005 -0.03214,-5.6e-4 -0.04434,0.0401 -0.01824,0.0609 -0.116804,0.18972 -0.177111,0.23152 -0.111164,0.077 -0.27051,0.0978 -0.412828,0.0539 -0.06934,-0.0214 -0.09138,-0.0357 -0.153859,-0.0994 -0.125962,-0.12846 -0.179126,-0.27478 -0.157099,-0.43236 0.02237,-0.16003 0.128112,-0.29277 0.273517,-0.34335 0.115292,-0.0401 0.258629,-0.045 0.366253,-0.0126 0.07539,0.0227 0.09624,0.0355 0.153472,0.094 0.03925,0.0401 0.07489,0.0904 0.08749,0.12337 l 0.02127,0.0557 H 74.235 c 0.411478,0 0.582076,-0.004 0.617361,-0.0144 0.03537,-0.0104 0.0813,-0.0456 0.167224,-0.12801 0.09928,-0.0952 0.215378,-0.19549 0.406709,-0.35126 0.02848,-0.0232 0.04938,-0.0263 0.211592,-0.0316 0.114071,-0.004 0.191995,-0.0117 0.212776,-0.0217 0.01803,-0.009 0.08287,-0.0744 0.14407,-0.14609 0.204283,-0.23921 0.348398,-0.38637 0.471266,-0.48122 0.130977,-0.10111 0.174121,-0.14828 0.221402,-0.24206 0.04318,-0.0857 0.05272,-0.14481 0.02506,-0.15543 -0.03054,-0.0117 -0.208845,0.0378 -0.306854,0.0852 -0.08775,0.0425 -0.265986,0.19461 -0.390872,0.33369 -0.06363,0.0709 -0.215842,0.2032 -0.280308,0.2437 -0.01731,0.0109 -0.05729,0.0261 -0.08885,0.0338 -0.112652,0.0275 -0.19434,0.084 -0.222177,0.15357 -0.01035,0.0259 -0.01881,0.057 -0.01881,0.0691 0,0.0204 -0.01605,0.0227 -0.210587,0.0306 -0.115823,0.005 -0.597041,0.007 -1.069374,0.004 l -0.858787,-0.004 -0.02864,0.0267 c -0.02294,0.0213 -0.04246,0.0267 -0.09796,0.0267 -0.195975,0 -0.310487,-0.19192 -0.203532,-0.34112 0.04967,-0.0693 0.0918,-0.0908 0.178617,-0.091 0.06311,-2e-4 0.08031,0.005 0.126161,0.0372 l 0.05309,0.0374 0.957779,0.003 c 1.018382,0.003 1.216133,-0.003 1.209968,-0.0346 -0.004,-0.0207 -0.335942,-0.36775 -0.462435,-0.48351 -0.04396,-0.0402 -0.107935,-0.0866 -0.142156,-0.10307 l -0.06222,-0.0299 -0.558823,-0.004 -0.558823,-0.004 -0.02579,0.0531 c -0.0574,0.11818 -0.138504,0.18964 -0.268995,0.23703 -0.10895,0.0396 -0.243623,0.031 -0.352134,-0.0224 -0.139757,-0.0688 -0.248659,-0.23164 -0.263951,-0.39468 -0.0079,-0.0841 0.01363,-0.19775 0.0517,-0.27286 0.113508,-0.22399 0.390621,-0.29723 0.64224,-0.16972 0.07453,0.0378 0.160335,0.13368 0.189503,0.21183 l 0.02298,0.0616 0.549202,6.6e-4 c 0.763527,9.1e-4 0.719314,-0.0143 1.135595,0.39051 0.237419,0.23086 0.268783,0.25099 0.378812,0.2431 0.08243,-0.006 0.24818,-0.0914 0.248791,-0.12831 6.44e-4,-0.0389 -0.0581,-0.12322 -0.146201,-0.2098 -0.05303,-0.0521 -0.152071,-0.15608 -0.220083,-0.231 -0.202797,-0.22343 -0.604763,-0.63637 -0.69371,-0.71267 -0.139509,-0.11966 -0.188328,-0.1367 -0.40798,-0.14233 -0.111581,-0.003 -0.111839,-0.003 -0.120111,0.0281 -0.01171,0.0438 -0.07268,0.12915 -0.125163,0.17523 -0.06769,0.0594 -0.182709,0.10855 -0.27075,0.11561 -0.200797,0.0161 -0.373525,-0.0953 -0.472828,-0.30506 -0.0326,-0.0688 -0.03638,-0.0883 -0.03571,-0.18362 8.82e-4,-0.12688 0.02904,-0.21111 0.100994,-0.30214 0.09246,-0.11696 0.206405,-0.16005 0.400992,-0.15161 0.138014,0.006 0.19687,0.0297 0.276382,0.11133 0.05253,0.0539 0.127017,0.1788 0.127017,0.21294 0,0.011 0.04628,0.0159 0.180657,0.0191 0.162585,0.004 0.188097,0.007 0.255037,0.0354 0.168555,0.0704 0.189031,0.0882 0.754863,0.6579 0.306729,0.3088 0.553993,0.54857 0.565662,0.54852 0.01937,-8e-5 0.02073,-0.0291 0.02073,-0.44292 v -0.44283 l -0.05035,-0.0128 c -0.145201,-0.0368 -0.312604,-0.21614 -0.375235,-0.40205 -0.02793,-0.0829 -0.03282,-0.22294 -0.01136,-0.32486 0.06107,-0.29001 0.370816,-0.4879 0.687048,-0.43895 0.211869,0.0328 0.400801,0.20264 0.455995,0.40993 0.01953,0.0734 0.02145,0.25586 0.0034,0.32163 -0.02883,0.1049 -0.09458,0.21648 -0.170586,0.28946 -0.07534,0.0723 -0.199562,0.1429 -0.251613,0.14292 l -0.02665,1e-5 v 0.45608 c 0,0.25085 0.0045,0.45609 0.01007,0.45609 0.04126,0 0.289182,-0.2309 0.566041,-0.52716 0.283467,-0.30334 0.511687,-0.52789 0.602073,-0.59238 0.142956,-0.10202 0.286773,-0.14741 0.468458,-0.14786 l 0.100694,-2.5e-4 0.03898,-0.0754 c 0.05448,-0.10537 0.107441,-0.1628 0.191367,-0.20753 0.13746,-0.0733 0.299746,-0.0737 0.447197,-0.001 0.0888,0.0437 0.158978,0.11898 0.209628,0.22483 0.03326,0.0695 0.03685,0.088 0.03685,0.18979 0,0.10346 -0.0032,0.1193 -0.03875,0.1915 -0.07978,0.16205 -0.204147,0.25589 -0.374014,0.2822 -0.165948,0.0257 -0.340352,-0.0558 -0.446547,-0.20855 -0.01855,-0.0267 -0.03722,-0.0625 -0.0415,-0.0795 -0.0078,-0.0309 -0.0079,-0.031 -0.104338,-0.0247 -0.26532,0.0173 -0.28795,0.0319 -0.695341,0.44759 -0.179472,0.18313 -0.379769,0.38958 -0.445105,0.45878 l -0.118792,0.12581 0.0051,0.0701 c 0.0042,0.0579 -0.0023,0.0918 -0.03763,0.19508 -0.02349,0.0687 -0.0427,0.13993 -0.0427,0.15821 v 0.0332 l 0.0837,-0.008 c 0.04798,-0.004 0.104855,-0.0186 0.133272,-0.033 0.02818,-0.0144 0.154369,-0.12874 0.292421,-0.26508 0.25709,-0.2539 0.343086,-0.32003 0.472999,-0.36377 0.07468,-0.0252 0.100317,-0.0265 0.628017,-0.0324 l 0.550162,-0.006 0.02955,-0.0574 c 0.115364,-0.22425 0.376686,-0.32254 0.612729,-0.23045 0.09389,0.0366 0.205808,0.14729 0.238978,0.2363 0.03566,0.0957 0.05357,0.19795 0.04595,0.26229 -0.0203,0.17143 -0.171038,0.33652 -0.359447,0.39368 -0.19316,0.0586 -0.441927,-0.0538 -0.530119,-0.23954 l -0.03261,-0.0687 -0.527927,0.004 c -0.488289,0.004 -0.532546,0.006 -0.58946,0.0269 -0.100361,0.0375 -0.167424,0.0901 -0.284207,0.22288 -0.06073,0.069 -0.170623,0.18361 -0.244211,0.25463 -0.129756,0.12524 -0.132917,0.12949 -0.104675,0.1409 0.01845,0.007 0.419186,0.0122 1.093338,0.013 0.869445,0.001 1.066597,-0.002 1.077224,-0.0144 0.0072,-0.009 0.03314,-0.0259 0.05775,-0.0385 0.148591,-0.0758 0.333868,0.058 0.292356,0.21114 -0.01978,0.073 -0.05611,0.12036 -0.120584,0.15734 -0.07283,0.0418 -0.136881,0.0454 -0.200256,0.0115 -0.04276,-0.0229 -0.06684,-0.0237 -0.735325,-0.0237 -0.380115,0 -0.867993,0.004 -1.084171,0.008 -0.391511,0.008 -0.393021,0.008 -0.385211,0.0326 0.0218,0.0688 0.469566,0.50435 0.568561,0.55308 l 0.05776,0.0284 0.559491,0.003 c 0.431085,0.002 0.562273,-6.2e-4 0.571612,-0.0118 0.0067,-0.008 0.02988,-0.0412 0.05159,-0.0738 0.0871,-0.13073 0.234125,-0.20161 0.416567,-0.20082 0.149529,6.4e-4 0.223513,0.0311 0.326547,0.13458 0.06731,0.0676 0.08146,0.0896 0.105141,0.16397 0.02222,0.0697 0.0264,0.10427 0.02221,0.18362 -0.0065,0.12283 -0.04347,0.2085 -0.12915,0.29909 -0.182303,0.19276 -0.499391,0.19439 -0.689907,0.004 -0.04031,-0.0404 -0.07296,-0.0877 -0.09159,-0.13276 l -0.02895,-0.07 -0.517308,0.008 c -0.347124,0.005 -0.540037,0.003 -0.586394,-0.005 -0.038,-0.007 -0.112683,-0.033 -0.165969,-0.0578 -0.101676,-0.0475 -0.167494,-0.10431 -0.49565,-0.42814 -0.07179,-0.0708 -0.13576,-0.12874 -0.142156,-0.12866 -0.01882,2.5e-4 -0.172968,0.12868 -0.209268,0.17436 -0.01835,0.0231 -0.03336,0.0545 -0.03336,0.0698 0,0.0202 0.07701,0.10805 0.281696,0.32119 0.154933,0.16133 0.345263,0.36529 0.422956,0.45325 0.198963,0.22525 0.297416,0.3189 0.370405,0.35233 0.05539,0.0254 0.07807,0.0284 0.207311,0.0276 0.07981,-5e-4 0.146796,-0.006 0.148851,-0.0121 0.01491,-0.0446 0.105708,-0.16083 0.152601,-0.19533 0.09195,-0.0677 0.171022,-0.093 0.293824,-0.0944 0.0966,-0.001 0.114123,0.002 0.18647,0.0367 0.103352,0.0489 0.18875,0.13435 0.23771,0.23771 0.0347,0.0733 0.03782,0.0896 0.0378,0.19831 -2.7e-5,0.10787 -0.0033,0.1254 -0.03675,0.19603 -0.06523,0.13776 -0.153613,0.2128 -0.305045,0.25898 -0.10052,0.0307 -0.162489,0.0312 -0.255333,0.002 -0.141633,-0.0441 -0.238745,-0.13286 -0.302131,-0.27618 l -0.029,-0.0656 -0.169631,-0.006 c -0.183125,-0.006 -0.263105,-0.0269 -0.378403,-0.0983 -0.07603,-0.047 -0.123197,-0.0949 -0.466406,-0.47358 -0.390524,-0.43087 -0.641573,-0.68117 -0.683204,-0.68117 -0.05204,0 -0.05725,0.0337 -0.05734,0.37076 -4.6e-5,0.17072 -0.0035,0.34706 -0.0078,0.39185 -0.0075,0.0796 -0.0081,0.0807 -0.02471,0.049 -0.01615,-0.0308 -0.02008,-0.0321 -0.0772,-0.0245 -0.0331,0.004 -0.07038,0.0134 -0.08284,0.0201 -0.01246,0.007 -0.02523,0.01 -0.02838,0.006 -0.01292,-0.0129 -0.02717,-0.24058 -0.02747,-0.43882 l -3.21e-4,-0.21162 -0.03258,0.006 c -0.07596,0.0138 -0.177773,0.0471 -0.218317,0.0714 -0.02397,0.0143 -0.116784,0.10336 -0.206253,0.19784 -0.597772,0.63121 -0.629829,0.66138 -0.786732,0.7404 -0.127377,0.0641 -0.188026,0.077 -0.363449,0.077 -0.137139,0 -0.157776,0.002 -0.157776,0.0191 0,0.0366 -0.07744,0.16404 -0.136268,0.22432 -0.0761,0.078 -0.164647,0.11368 -0.296123,0.11947 -0.05906,0.003 -0.113408,-0.002 -0.144239,-0.012 z m 0.233564,-0.2682 c 0.05308,-0.0271 0.09938,-0.0926 0.120064,-0.16994 0.01192,-0.0446 0.01084,-0.0605 -0.0073,-0.10814 -0.05797,-0.15181 -0.197104,-0.21319 -0.327234,-0.14438 -0.146883,0.0777 -0.150028,0.3371 -0.0051,0.41919 0.06175,0.035 0.15475,0.0364 0.219601,0.003 z m 4.675079,9.2e-4 c 0.07499,-0.0341 0.116457,-0.10408 0.115649,-0.19532 -0.0018,-0.20862 -0.206923,-0.32321 -0.364209,-0.20351 -0.05647,0.043 -0.07777,0.0914 -0.07866,0.179 -0.0012,0.11782 0.04116,0.19835 0.119174,0.22657 0.06023,0.0218 0.151734,0.0188 0.208043,-0.007 z m -5.411959,-1.07177 c 0.0842,-0.0435 0.145372,-0.18662 0.120028,-0.28074 -0.02508,-0.0931 -0.116106,-0.16457 -0.209527,-0.16443 -0.139692,2.1e-4 -0.228422,0.0899 -0.228422,0.23094 0,0.0984 0.04411,0.17297 0.13031,0.22041 0.0477,0.0263 0.130131,0.0236 0.187611,-0.006 z m 6.136963,0.006 c 0.164925,-0.0841 0.187912,-0.29449 0.04465,-0.40863 -0.04126,-0.0329 -0.05356,-0.0363 -0.13031,-0.0363 -0.06737,0 -0.09356,0.005 -0.127751,0.0267 -0.05517,0.0343 -0.09323,0.11905 -0.09323,0.20756 0,0.16841 0.165949,0.28241 0.306637,0.21063 z m -3.344025,-0.28259 c 0.02609,-0.0133 0.08181,-0.0576 0.123815,-0.0985 0.30152,-0.29338 0.553541,-0.52363 0.653653,-0.5972 0.145857,-0.10718 0.178979,-0.14821 0.170845,-0.21161 -0.0097,-0.0756 -0.02684,-0.0843 -0.165113,-0.0837 -0.187583,8.9e-4 -0.223791,0.01 -0.286322,0.0706 -0.02947,0.0286 -0.07734,0.0883 -0.106372,0.13261 -0.02903,0.0443 -0.06507,0.0947 -0.08009,0.11211 -0.05108,0.0591 -0.255256,0.23193 -0.410694,0.34765 -0.131321,0.0978 -0.159553,0.12455 -0.184915,0.17544 -0.04472,0.0897 -0.03834,0.13694 0.02338,0.17289 0.03734,0.0217 0.204856,0.009 0.261816,-0.0203 z m -2.8372,-1.60326 c 0.07929,-0.0264 0.152099,-0.11864 0.169519,-0.21463 0.01467,-0.0809 -0.05939,-0.20526 -0.143678,-0.24132 -0.08641,-0.037 -0.221301,-6.9e-4 -0.265081,0.0713 -0.03764,0.0619 -0.05207,0.15141 -0.03453,0.21409 0.01929,0.0689 0.08697,0.14487 0.148185,0.16634 0.05871,0.0206 0.0749,0.0211 0.12558,0.004 z m 6.182886,-0.0132 c 0.149502,-0.0756 0.174844,-0.28891 0.04795,-0.40355 -0.08408,-0.076 -0.166724,-0.0812 -0.262647,-0.0166 -0.125953,0.0848 -0.130254,0.29997 -0.0078,0.39126 0.07983,0.0595 0.145134,0.068 0.222521,0.0289 z m -5.428657,-1.09339 c 0.06005,-0.0251 0.09628,-0.0611 0.122634,-0.12184 0.04489,-0.10348 0.01886,-0.21278 -0.06767,-0.2841 -0.182879,-0.15074 -0.414819,0.0318 -0.347669,0.27356 0.03389,0.12203 0.170075,0.18362 0.292703,0.13238 z m 4.690308,-0.0106 c 0.05027,-0.0234 0.06685,-0.0392 0.09035,-0.0858 0.05923,-0.11753 0.05104,-0.19557 -0.02973,-0.28319 -0.08062,-0.0875 -0.196036,-0.0982 -0.293894,-0.0273 -0.08613,0.0624 -0.11287,0.15876 -0.07729,0.27859 0.021,0.0707 0.05674,0.10718 0.126297,0.12888 0.07509,0.0234 0.1151,0.021 0.184262,-0.0112 z m -2.288058,-0.2253 c 0.07247,-0.0303 0.134707,-0.0905 0.17126,-0.16568 0.128533,-0.26439 -0.02548,-0.53075 -0.308117,-0.53285 -0.104224,-7.8e-4 -0.149565,0.0176 -0.236463,0.0957 -0.08347,0.0751 -0.112347,0.14135 -0.112711,0.25879 -2.46e-4,0.0795 0.0051,0.10624 0.03297,0.16581 0.04796,0.10243 0.101521,0.15176 0.208193,0.19174 0.0512,0.0192 0.184168,0.0119 0.244869,-0.0135 z"
             id="path8" /><path
             style="fill:#59cefe;fill-opacity:1;stroke-width:4.58962;stroke-linejoin:bevel;paint-order:markers stroke fill"
             d="m 287.74419,502.96207 c -0.37397,-0.21782 -0.65284,-0.88747 -0.56486,-1.35643 0.0854,-0.45506 0.49356,-0.90367 0.94725,-1.04104 0.36648,-0.11096 1.15632,0.21897 1.33833,0.55906 0.44737,0.83591 -0.14113,1.98281 -1.01371,1.97556 -0.26309,-0.002 -0.58125,-0.0639 -0.70701,-0.13715 z"
             id="path99"
             transform="scale(0.26458333)" /><path
             style="fill:#59cefe;fill-opacity:1;stroke-width:4.58962;stroke-linejoin:bevel;paint-order:markers stroke fill"
             d="m 296.65377,503.74858 c -0.35744,-0.35744 -0.28445,-0.87455 0.17124,-1.21327 l 0.35931,-0.26709 0.35931,0.26709 c 0.19762,0.14689 0.37758,0.4194 0.39989,0.60556 0.0476,0.39682 -0.36808,0.87694 -0.7592,0.87694 -0.14373,0 -0.38247,-0.12115 -0.53055,-0.26923 z"
             id="path100"
             transform="scale(0.26458333)" /><path
             style="fill:#59cefe;fill-opacity:1;stroke-width:4.58962;stroke-linejoin:bevel;paint-order:markers stroke fill"
             d="m 299.73217,508.04277 c -0.35291,-0.20012 -0.45293,-0.36947 -0.4553,-0.77089 -0.002,-0.39359 0.35984,-0.77154 0.73932,-0.77154 0.65844,0 0.95886,1.10761 0.40554,1.49517 -0.3412,0.23898 -0.35037,0.23961 -0.68956,0.0473 z"
             id="path102"
             transform="scale(0.26458333)" /><path
             style="fill:#59cefe;fill-opacity:1;stroke-width:4.58962;stroke-linejoin:bevel;paint-order:markers stroke fill"
             d="m 299.72453,515.21954 c -0.34376,-0.18795 -0.4453,-0.36065 -0.44766,-0.76141 -0.002,-0.42184 0.40358,-0.80667 0.79073,-0.74937 0.16041,0.0237 0.40689,0.1981 0.54773,0.38748 0.22764,0.30608 0.23635,0.38444 0.0784,0.70564 -0.21257,0.43235 -0.62069,0.60822 -0.96924,0.41766 z"
             id="path103"
             transform="scale(0.26458333)" /><path
             style="fill:#59cefe;fill-opacity:1;stroke-width:4.58961;stroke-linejoin:bevel;paint-order:markers stroke fill"
             d="m 297.04738,519.38076 c -0.2924,-0.0509 -0.44122,-0.15407 -0.5419,-0.37573 -0.27348,-0.60216 3.8e-4,-1.21584 0.58491,-1.3107 0.40503,-0.0657 0.82829,0.29814 0.91274,0.78465 0.0455,0.26215 -0.12209,0.67655 -0.31573,0.78069 -0.16047,0.0863 -0.486,0.14788 -0.64002,0.12109 z"
             id="path104"
             transform="scale(0.26458333)" /><path
             style="fill:#59cefe;fill-opacity:1;stroke-width:4.58961;stroke-linejoin:bevel;paint-order:markers stroke fill"
             d="m 288.0344,525.71091 c -0.1703,-0.0887 -0.26799,-0.1769 -0.26799,-0.24209 0,-0.14404 0.71431,-0.94892 1.29014,-1.45371 0.83289,-0.73013 1.74999,-1.25728 2.19375,-1.26098 0.22441,-0.002 0.2362,-0.0841 0.0275,-0.19206 -0.25581,-0.13229 -1.30654,-0.48588 -1.7906,-0.60257 -0.5371,-0.12948 -1.26991,-0.14109 -1.75049,-0.0277 -0.53529,0.12626 -1.68148,0.51535 -2.17636,0.7388 -0.37412,0.16892 -0.48978,0.19735 -0.67534,0.166 -0.26127,-0.0441 -0.39092,-0.15402 -0.39092,-0.33131 0,-0.16925 0.2352,-0.38025 0.66048,-0.59254 1.06066,-0.52946 1.75779,-1.01168 2.51005,-1.73626 0.68635,-0.66109 0.70889,-0.66386 1.33769,-0.1644 0.25101,0.19937 0.60243,0.44522 0.78094,0.54633 0.17851,0.10111 0.50228,0.30338 0.71949,0.44948 0.21722,0.14611 0.6996,0.43714 1.07197,0.64675 1.00898,0.56794 0.93092,0.50243 0.93092,0.78127 0,0.21949 -0.0278,0.27073 -0.26799,0.4944 -0.1474,0.13724 -0.73339,0.56188 -1.3022,0.94363 -0.56881,0.38175 -1.27969,0.91091 -1.57973,1.17592 -0.55483,0.49003 -0.95835,0.80795 -1.01947,0.80321 -0.0186,-10e-4 -0.15444,-0.0654 -0.30184,-0.14213 z"
             id="path105"
             transform="scale(0.26458333)" /><path
             style="fill:#59cefe;fill-opacity:1;stroke-width:4.58961;stroke-linejoin:bevel;paint-order:markers stroke fill"
             d="m 285.90457,524.00913 c -0.20842,-0.0793 -0.22559,-0.33764 -0.0344,-0.51727 0.16128,-0.15152 0.75291,-0.34666 1.57208,-0.51855 l 0.5992,-0.12573 0.41193,0.10767 c 0.51777,0.13533 0.54945,0.2246 0.17694,0.49867 -0.34696,0.25527 -0.74474,0.40571 -1.3534,0.51185 -0.4773,0.0832 -1.20704,0.10629 -1.37237,0.0434 z"
             id="path106"
             transform="scale(0.26458333)" /><path
             style="fill:#59cefe;fill-opacity:1;stroke-width:4.58961;stroke-linejoin:bevel;paint-order:markers stroke fill"
             d="m 279.28335,519.36762 c -0.64216,-0.19945 -0.73867,-1.17466 -0.15485,-1.56468 0.67286,-0.44949 1.53844,0.42666 1.12236,1.13606 -0.22316,0.38047 -0.59383,0.54468 -0.96751,0.42862 z"
             id="path107"
             transform="scale(0.26458333)" /><path
             style="fill:#59cefe;fill-opacity:1;stroke-width:4.58961;stroke-linejoin:bevel;paint-order:markers stroke fill"
             d="m 276.42614,515.26208 c -0.55674,-0.29945 -0.58255,-1.23627 -0.0417,-1.51593 0.53221,-0.27522 1.19914,0.10043 1.19779,0.67465 -6.4e-4,0.27499 -0.17246,0.63551 -0.37493,0.78667 -0.21203,0.1583 -0.54503,0.18158 -0.78111,0.0546 z"
             id="path108"
             transform="scale(0.26458333)" /><path
             style="fill:#59cefe;fill-opacity:1;stroke-width:4.58961;stroke-linejoin:bevel;paint-order:markers stroke fill"
             d="m 276.42172,508.06815 c -0.29022,-0.19558 -0.44695,-0.46518 -0.44685,-0.76866 1.2e-4,-0.34465 0.15025,-0.63103 0.39485,-0.75323 0.4421,-0.22085 0.88424,-0.0526 1.12208,0.42691 0.1198,0.24153 0.12745,0.29602 0.069,0.49104 -0.11748,0.39213 -0.4952,0.73223 -0.81323,0.73223 -0.0745,0 -0.22117,-0.0577 -0.32587,-0.12829 z"
             id="path109"
             transform="scale(0.26458333)" /><path
             style="fill:#59cefe;fill-opacity:1;stroke-width:4.58961;stroke-linejoin:bevel;paint-order:markers stroke fill"
             d="m 279.13596,503.94924 c -0.23792,-0.12039 -0.39663,-0.41692 -0.39663,-0.74102 0,-0.39934 0.14381,-0.651 0.46425,-0.8124 0.22582,-0.11375 0.28799,-0.12269 0.48465,-0.0697 0.2662,0.0717 0.54347,0.36123 0.62351,0.65112 0.17998,0.65183 -0.57504,1.27602 -1.17578,0.97204 z"
             id="path110"
             transform="scale(0.26458333)" /><ellipse
             style="fill:#a2afb5;fill-opacity:1;stroke-width:1.21434;stroke-linejoin:bevel;paint-order:markers stroke fill"
             id="path111"
             cx="76.497902"
             cy="140.13219"
             rx="2.8204019"
             ry="0.26114833" /></g></g><path
         style="fill:#ffffff;fill-opacity:1;stroke-width:8.21199;stroke-linejoin:bevel;paint-order:markers stroke fill"
         d="m 113.93036,664.34862 c -0.0773,-0.0242 -0.20518,-0.11745 -0.28408,-0.20732 -0.13084,-0.14901 -0.14175,-0.1841 -0.12397,-0.39855 0.0263,-0.31705 0.24729,-0.75087 0.51285,-1.00672 0.11796,-0.11365 0.57625,-0.48414 1.01842,-0.82331 0.93447,-0.7168 1.96465,-1.57605 2.41394,-2.01343 0.17312,-0.16852 0.49305,-0.56424 0.71097,-0.87938 0.47918,-0.69297 0.93469,-1.19232 1.20244,-1.31817 0.3603,-0.16937 1.68298,-0.25116 2.2153,-0.137 0.27421,0.0588 0.35368,0.16067 0.38849,0.4979 0.0426,0.41296 -0.11884,0.62526 -0.98869,1.29992 -0.93919,0.72845 -1.82168,1.52126 -3.91053,3.51311 -0.57962,0.55271 -1.16338,1.07964 -1.29724,1.17095 -0.13386,0.0913 -0.36397,0.19732 -0.51136,0.23558 -0.32906,0.0854 -1.15525,0.12616 -1.34654,0.0664 z"
         id="path123"
         transform="scale(0.26458333)" /></g></g></svg>
